<svg xmlns="http://www.w3.org/2000/svg" width="220" height="68" fill="none"><path fill="#121211" d="M157.5 34c0 8.597-21.271 15.58-47.5 15.58-26.23 0-47.5-6.983-47.5-15.58 0-8.598 21.27-15.58 47.5-15.58 26.229 0 47.5 6.982 47.5 15.58z"/><path fill="#fff" d="M84.122 39.102c-1.13.836-2.67 1.254-4.608 1.254-1.12 0-2.1-.095-2.935-.295-.836-.2-1.615-.446-2.347-.75v-3.25h.38a8.126 8.126 0 0 0 2.423 1.33c.893.314 1.757.466 2.574.466.21 0 .494-.019.836-.057.342-.038.627-.095.846-.18a2.03 2.03 0 0 0 .655-.409c.171-.161.257-.408.257-.731 0-.295-.124-.551-.38-.77-.257-.218-.618-.38-1.102-.494a29.876 29.876 0 0 0-1.615-.342 10.873 10.873 0 0 1-1.596-.408c-1.14-.37-1.957-.874-2.46-1.51-.504-.637-.751-1.426-.751-2.357 0-1.263.57-2.29 1.7-3.087 1.13-.798 2.584-1.197 4.36-1.197.894 0 1.777.085 2.642.256.874.171 1.624.39 2.26.646v3.116h-.37c-.541-.437-1.216-.798-2.004-1.092a6.866 6.866 0 0 0-3.287-.38c-.285.038-.57.114-.836.218a1.588 1.588 0 0 0-.608.418.906.906 0 0 0-.257.637c0 .36.133.636.409.826.275.19.788.361 1.548.523.494.104.979.2 1.435.304.456.095.95.228 1.482.399 1.035.342 1.805.798 2.299 1.387s.74 1.349.74 2.28c.01 1.33-.56 2.413-1.69 3.249zm12.502-.124c-.979.97-2.356 1.454-4.123 1.454-1.767 0-3.145-.485-4.123-1.454-.979-.969-1.473-2.29-1.473-3.97 0-1.692.494-3.022 1.482-3.981.988-.97 2.356-1.444 4.114-1.444 1.786 0 3.163.484 4.132 1.453.97.97 1.463 2.3 1.463 3.971 0 1.672-.494 3.002-1.472 3.971zm-2.546-6.44a1.598 1.598 0 0 0-.703-.533 2.468 2.468 0 0 0-.884-.152 2.58 2.58 0 0 0-.845.124c-.247.085-.485.256-.703.513-.2.237-.361.56-.475.969-.114.408-.18.93-.18 1.558 0 .56.047 1.045.151 1.453.105.409.257.741.456.988.19.238.428.409.694.523.266.104.58.161.921.161.295 0 .58-.047.855-.152.266-.104.494-.266.684-.503.21-.257.37-.57.475-.94.105-.371.162-.875.162-1.52 0-.6-.057-1.103-.162-1.511-.095-.409-.247-.732-.446-.979zm12.511-4.18h-.247c-.142-.039-.332-.096-.57-.143a3.18 3.18 0 0 0-.75-.086c-.637 0-1.074.114-1.302.342-.228.228-.342.675-.342 1.34v.085h2.518v2.223h-2.413v8h-3.287v-8h-1.397v-2.223h1.397v-.285c0-1.254.332-2.185.997-2.812.665-.627 1.672-.94 3.012-.94.484 0 .921.019 1.32.047.39.038.741.076 1.045.133v2.318h.019zm7.971 3.752h-3.059v3.629c0 .36 0 .674.009.94.01.266.057.504.143.722.085.21.237.38.446.504.219.123.532.19.941.19.171 0 .389-.038.665-.105.275-.076.465-.142.579-.2h.276v2.243a7.828 7.828 0 0 1-1.121.209c-.399.047-.874.076-1.444.076-1.273 0-2.223-.257-2.841-.77-.617-.513-.931-1.396-.931-2.65v-4.779h-1.358v-2.223h1.349V26.97h3.287v2.917h3.059v2.223zm10.459 1.111h-.465c-.124-.104-.276-.237-.456-.38a4.915 4.915 0 0 0-.656-.427 4.186 4.186 0 0 0-.817-.333 3.75 3.75 0 0 0-1.035-.133c-.874 0-1.539.276-2.014.836-.466.551-.703 1.311-.703 2.261 0 .979.237 1.73.722 2.242.484.513 1.168.76 2.052.76.408 0 .779-.047 1.111-.142.333-.095.608-.21.827-.333.209-.123.389-.247.541-.38.162-.133.304-.266.437-.39h.466v2.794a8.619 8.619 0 0 1-1.615.58 7.55 7.55 0 0 1-1.862.208c-.893 0-1.71-.104-2.442-.323a5.438 5.438 0 0 1-1.928-.978 4.406 4.406 0 0 1-1.254-1.672c-.295-.675-.447-1.463-.447-2.366 0-.95.162-1.776.475-2.47a4.687 4.687 0 0 1 1.33-1.72 5.46 5.46 0 0 1 1.91-.95 8.41 8.41 0 0 1 2.251-.303c.694 0 1.34.076 1.929.228a9.28 9.28 0 0 1 1.643.589v2.802zm11.505 6.888h-3.249v-1.083l-.656.484c-.256.19-.503.333-.741.447a4.7 4.7 0 0 1-.997.323 5.972 5.972 0 0 1-1.14.104c-.969 0-1.786-.304-2.442-.902-.655-.599-.978-1.368-.978-2.3 0-.75.171-1.358.503-1.823.333-.475.808-.846 1.416-1.121.608-.276 1.358-.466 2.251-.58.893-.114 1.824-.2 2.793-.256v-.067c0-.56-.228-.95-.693-1.168-.466-.219-1.14-.323-2.033-.323-.542 0-1.112.095-1.729.285-.608.19-1.055.342-1.321.437h-.304v-2.47c.342-.095.912-.2 1.691-.323a14.94 14.94 0 0 1 2.347-.19c1.862 0 3.211.285 4.037.855.827.57 1.245 1.472 1.245 2.698v6.973zm-5.852-4.427c-.323.104-.58.256-.751.446-.171.2-.256.456-.256.78 0 .208.019.38.057.512a.76.76 0 0 0 .275.38c.143.124.304.21.504.266.19.057.494.086.912.086.323 0 .655-.067.997-.2.333-.133.637-.304.884-.522v-2.12c-.447.038-.922.086-1.435.152-.532.067-.921.133-1.187.219zm14.544-3.572h-3.059v3.629c0 .36 0 .674.01.94.009.266.057.504.142.722.086.21.238.38.447.504.218.123.532.19.94.19.171 0 .39-.038.665-.105a3.38 3.38 0 0 0 .58-.2h.275v2.243a7.802 7.802 0 0 1-1.121.209c-.399.047-.874.076-1.444.076-1.273 0-2.223-.257-2.84-.77-.618-.513-.931-1.396-.931-2.65v-4.779h-1.349v-2.223h1.349V26.97h3.287v2.917h3.059v2.223h-.01z"/></svg>