<svg xmlns="http://www.w3.org/2000/svg" width="220" height="68" fill="none"><path fill="#121211" d="M80.932 25.873h2.13v5.926c.866-1.265 2.065-1.93 3.464-1.93 1.931 0 3.063 1.065 3.063 3.196v7.258h-2.131v-6.659c0-1.465-.533-1.865-1.598-1.865-.666 0-1.266.4-1.865 1.133-.6.798-.866 1.797-.866 3.063v4.328H81l-.067-14.45zm19.313 9.855h-7.26c0 1.598.933 2.864 2.531 2.864a2.914 2.914 0 0 0 2.664-1.732l1.798.733c-1.065 1.997-2.264 2.863-4.528 2.863-3.397 0-4.795-2.863-4.795-5.327s1.398-5.327 4.795-5.327c3.263 0 4.728 2.663 4.728 4.994v.932h.067zm-7.193-1.731h4.995c-.2-1.265-1.066-2.264-2.464-2.264-1.399 0-2.264.932-2.53 2.264zm23.841-4.129c.533 0 .999.134 1.598.4.533.266.933.533 1.199.866v-5.328h2.131v14.45h-2.131v-1.198c-.4.666-1.532 1.331-2.797 1.331-2.997 0-4.595-1.93-4.595-5.327 0-3.196 1.598-5.194 4.595-5.194zm-2.397 5.26c0 1.066.266 1.865.732 2.531.466.6 1.132.933 1.865.933.799 0 1.398-.334 1.864-.933.467-.6.733-1.465.733-2.53 0-1.066-.266-1.865-.733-2.464-.466-.6-1.132-.932-1.864-.932-.799 0-1.399.333-1.865.932-.466.6-.732 1.465-.732 2.464zm15.384-3.663-1.332 1.199c-.466-.6-1.065-.933-1.798-.933-.599 0-.999.4-.999 1 0 .199.067.465.267.599.333.333.666.532 1.598.865a8.9 8.9 0 0 1 1.598.733c.799.466 1.199 1.132 1.266 2.197 0 .932-.333 1.665-.999 2.33-.666.6-1.532.933-2.598.933-1.931 0-3.329-1.265-3.995-2.73l1.798-.999c.533 1.265 1.332 1.864 2.264 1.864.932 0 1.399-.466 1.399-1.331 0-.333-.134-.6-.533-.8-.2-.133-.333-.2-.533-.266-.333-.133-1.066-.4-1.398-.532-1.466-.6-2.198-1.532-2.198-2.797 0-.8.333-1.532.866-2.064.599-.6 1.332-.866 2.264-.866 1.265 0 2.397.6 3.063 1.598zm6.791 8.99c-1.199 0-2.264-.6-2.73-1.332v5.327h-2.131V30h2.131v1.2c.399-.666 1.531-1.332 2.797-1.332 2.996 0 4.595 1.931 4.595 5.327-.067 3.196-1.665 5.26-4.662 5.26zm2.398-5.328c0-1.065-.267-1.864-.733-2.463-.466-.6-1.132-.933-1.865-.933-.799 0-1.398.333-1.864.933-.467.599-.733 1.465-.733 2.463 0 1.066.266 1.865.733 2.53.466.6 1.132.933 1.864.933.799 0 1.399-.333 1.865-.932.466-.6.733-1.465.733-2.53zm23.175 2.466c-.865 1.864-2.331 2.863-4.462 2.863-1.531 0-2.73-.533-3.596-1.532-.866-.998-1.265-2.264-1.265-3.795 0-1.532.399-2.797 1.265-3.796.866-.998 2.065-1.531 3.596-1.531 2.131 0 3.597.932 4.462 2.863l-1.864.8c-.533-1.2-1.399-1.799-2.531-1.799-1.732 0-2.597 1.399-2.597 3.396 0 2.065.865 3.396 2.597 3.396 1.132 0 1.998-.599 2.531-1.798l1.864.933zm10.256-1.865h-7.259c0 1.598.932 2.864 2.531 2.864a2.913 2.913 0 0 0 2.663-1.732l1.799.733c-1.066 1.997-2.265 2.863-4.529 2.863-3.396 0-4.795-2.863-4.795-5.327s1.399-5.327 4.795-5.327c3.263 0 4.728 2.663 4.728 4.994v.932h.067zm-7.192-1.731h4.994c-.2-1.265-1.065-2.264-2.464-2.264-1.398 0-2.331.932-2.53 2.264zm-59.204-4.13c.533 0 .999.133 1.599.4.532.266.932.532 1.198.865V30h2.132v10.321h-1.799l-.333-1.198c-.399.666-1.531 1.332-2.797 1.332-2.996 0-4.595-1.931-4.595-5.328-.066-3.196 1.532-5.26 4.595-5.26zm-2.397 5.327c0 1.066.266 1.864.733 2.53.466.6 1.132.933 1.864.933.799 0 1.399-.333 1.865-.933.466-.599.732-1.464.732-2.53 0-1.065-.266-1.864-.732-2.464-.466-.599-1.132-.932-1.865-.932-.799 0-1.398.333-1.864.932-.467.533-.733 1.399-.733 2.464zm43.222-5.327c.532 0 .999.133 1.598.4.533.266.932.532 1.199.865V30h2.131v10.321h-1.798l-.333-1.198c-.4.666-1.532 1.332-2.797 1.332-2.997 0-4.595-1.931-4.595-5.328-.067-3.196 1.531-5.26 4.595-5.26zm-2.398 5.327c0 1.066.267 1.864.733 2.53.466.6 1.132.933 1.864.933.8 0 1.399-.333 1.865-.933.466-.599.733-1.464.733-2.53 0-1.065-.267-1.864-.733-2.464-.466-.599-1.132-.932-1.865-.932-.799 0-1.398.333-1.864.932-.533.533-.733 1.399-.733 2.464zm-70.193-1.33c.333 4.395-1.731 6.858-2.93 8.59-1.865 1.997-4.329 4.727-10.39 4.86-5.194.2-7.724-2.063-9.855-4.061-2.797-3.063-3.53-4.928-3.663-9.39 0-2.796 1.066-5.526 2.93-7.99 2.597-3.662 6.726-4.928 10.589-5.194 3.996-.133 7.192 1.865 9.39 4.062 2.797 2.997 3.663 5.527 3.93 9.123z"/></svg>