<svg xmlns="http://www.w3.org/2000/svg" width="220" height="68" fill="none"><path fill="#121211" d="M55.88 25.45h-4.472v4.461l4.471 4.462-4.47 4.478v4.462h4.47l4.455-4.462v-8.94l-4.455-4.461zm-6.69 2.222-2.236-2.222H42.5v4.461l2.218 2.24 2.236 2.222 4.454-4.462-2.218-2.24zm-4.472 8.94-2.218 2.24v4.46h4.454l2.236-2.239 2.218-2.222-4.454-4.478-2.236 2.239zm119.767-11.925h-2.744v2.746h2.744v-2.746zm-91.788 6.224c1.222 0 2.272.73 2.573 1.933h2.723c-.3-2.556-2.573-4.252-5.275-4.252-3.13 0-5.725 2.34-5.725 5.755 0 3.566 2.509 5.864 5.682 5.864 2.595 0 4.91-1.59 5.318-4.274H75.27c-.343 1.267-1.373 1.954-2.573 1.954-1.651 0-2.873-1.482-2.873-3.544 0-2.018 1.179-3.436 2.873-3.436zm13.55 4.081c0 1.954-1.094 2.856-2.273 2.856-1.308 0-2.165-.88-2.165-2.47V28.85h-2.766v6.98c0 2.9 1.672 4.382 4.03 4.382 1.394 0 2.53-.516 3.238-1.547v1.31h2.68V28.85h-2.744v6.143zm72.917 2.082h-3.016v2.9h3.016v-2.9zm-46.146-8.482c-3.216 0-5.854 2.255-5.854 5.755 0 3.609 2.595 5.864 5.854 5.864 3.216 0 5.832-2.298 5.832-5.864 0-3.543-2.595-5.755-5.832-5.755zm0 9.3c-1.801 0-3.024-1.44-3.024-3.545 0-2.04 1.201-3.436 3.024-3.436 1.779 0 3.001 1.418 3.001 3.436 0 2.127-1.222 3.544-3.001 3.544zm20.025-9.3c-1.543 0-2.873.644-3.623 1.847-.708-1.289-2.016-1.847-3.324-1.847-1.458 0-2.594.558-3.259 1.567v-1.31h-2.68v11.125h2.745V33.79c0-1.89 1.093-2.835 2.272-2.835 1.18 0 2.08.795 2.08 2.406v6.614h2.745V33.79c0-1.868 1.093-2.835 2.272-2.835 1.179 0 2.08.795 2.08 2.406v6.614h2.766v-7.066c0-3.135-1.908-4.316-4.074-4.316zm10.913 0c-2.959 0-5.682 2.212-5.682 5.734 0 3.694 2.637 5.885 5.789 5.885 2.294 0 4.674-1.053 5.36-3.501h-2.701c-.514.988-1.544 1.331-2.573 1.331-1.586 0-2.873-1.095-3.087-2.856h8.469v-.601c0-3.952-2.574-5.992-5.575-5.992zm-2.916 4.639c.193-1.568 1.415-2.492 2.873-2.492 1.544 0 2.659.988 2.787 2.492h-5.66zm16.38-1.804v-2.599a3.812 3.812 0 0 0-.771-.064c-.965 0-1.587.214-2.252.73-.365.3-.643.666-.879 1.052V28.85h-2.68v11.125h2.745v-5.991c0-2.17 1.543-2.6 2.744-2.6.3 0 .558 0 1.093.044zm7.066-2.577h-2.745v11.124h2.745V28.85zm7.182-.258c-3.216 0-5.853 2.255-5.853 5.755 0 3.609 2.594 5.864 5.853 5.864 3.217 0 5.832-2.298 5.832-5.864 0-3.543-2.594-5.755-5.832-5.755zm0 9.3c-1.801 0-3.024-1.44-3.024-3.545 0-2.04 1.201-3.436 3.024-3.436 1.779 0 3.002 1.418 3.002 3.436 0 2.127-1.223 3.544-3.002 3.544zm-67.291-1.567v-5.253h2.573v-2.223h-2.576v-3.4h-2.721v2.046l1.352 1.354h-3.216v2.223h1.865v5.564c0 .797.237 4.401 5.33 3.44v-2.31c-1.443.431-2.607-.008-2.607-1.441zm-8.424-3.052-1.458-.317c-.423-.085-.769-.212-1.036-.382a.805.805 0 0 1-.402-.72c0-.523.55-1.094 1.628-1.094.658 0 1.85.258 2.005 1.42h2.644c-.118-.628-.658-3.608-4.607-3.608-1.31 0-2.346.329-3.107.985-.761.656-1.142 1.486-1.142 2.488 0 .678.17 1.232.508 1.662.338.43.774.77 1.31 1.017a7.91 7.91 0 0 0 1.734.56l1.543.318c.45.1.813.222 1.025.434.572.573.278 1.922-1.588 1.922-1.982 0-2.267-1.44-2.297-1.854h-2.664c0 .838.648 4.114 5.08 4.114.93 0 1.723-.159 2.378-.476.655-.318 1.155-.748 1.5-1.292a3.306 3.306 0 0 0 .519-1.81c0-1.908-1.187-2.883-3.573-3.367z"/></svg>