<svg xmlns="http://www.w3.org/2000/svg" width="220" height="68" fill="none"><g fill="#121211" clip-path="url(#a)"><path d="M83.908 30.067h11.138v2.078h-4.38v11.682h-2.408V32.145h-4.36v-2.078h.01zm10.662 3.797h2.059v1.923h.039a2.26 2.26 0 0 1 .378-.787 3.615 3.615 0 0 1 1.544-1.214c.32-.126.651-.194.981-.194.253 0 .437.01.534.02.097.01.194.029.301.038v2.117a6.957 6.957 0 0 0-.476-.068 3.903 3.903 0 0 0-.475-.029c-.37 0-.719.078-1.05.223-.33.146-.61.37-.854.651-.242.291-.437.64-.582 1.068-.146.427-.214.913-.214 1.466v4.74h-2.194v-9.954h.01zm15.925 9.963h-2.155v-1.389h-.039c-.272.505-.67.903-1.204 1.204-.534.301-1.078.457-1.632.457-1.311 0-2.262-.32-2.845-.971-.582-.65-.874-1.632-.874-2.943v-6.321h2.195v6.108c0 .874.165 1.495.505 1.855.33.359.806.543 1.408.543.466 0 .845-.068 1.155-.213.311-.146.564-.33.748-.573a2.21 2.21 0 0 0 .418-.855c.087-.33.126-.69.126-1.078v-5.777h2.194v9.953zm3.739-3.195c.068.641.311 1.088.728 1.35.427.252.932.388 1.525.388.204 0 .437-.02.699-.048.262-.03.515-.097.738-.185.233-.087.417-.223.573-.398.145-.175.213-.398.204-.68a.94.94 0 0 0-.311-.69c-.194-.184-.437-.32-.738-.436a7.395 7.395 0 0 0-1.029-.282c-.389-.077-.777-.165-1.175-.252a11.153 11.153 0 0 1-1.185-.33 3.615 3.615 0 0 1-1.02-.525 2.308 2.308 0 0 1-.718-.835c-.185-.34-.272-.757-.272-1.262 0-.544.136-.99.398-1.36.262-.369.602-.66 1-.883a4.642 4.642 0 0 1 1.35-.476 8.215 8.215 0 0 1 1.418-.136c.514 0 1.01.058 1.476.165.466.107.893.282 1.272.534.379.243.689.563.942.952.252.388.408.864.476 1.417h-2.292c-.107-.524-.34-.883-.719-1.058-.378-.184-.815-.272-1.301-.272a4.1 4.1 0 0 0-.553.039c-.214.03-.408.078-.602.146-.185.068-.34.175-.476.31a.748.748 0 0 0-.194.534c0 .272.097.486.281.651.185.165.427.301.728.418a7.4 7.4 0 0 0 1.03.281c.388.078.786.165 1.194.253.398.087.787.204 1.175.33.388.126.728.3 1.029.524.301.224.544.495.729.826.184.33.281.747.281 1.233 0 .592-.136 1.087-.408 1.505a3.22 3.22 0 0 1-1.048 1 4.946 4.946 0 0 1-1.437.563 7.22 7.22 0 0 1-1.564.175 6.632 6.632 0 0 1-1.748-.214c-.534-.145-1-.359-1.388-.64a3.18 3.18 0 0 1-.923-1.078c-.223-.428-.34-.942-.359-1.535h2.214v-.019zm7.244-6.768h1.66v-2.99h2.195v2.99h1.981v1.641h-1.981v5.321c0 .233.01.428.029.602a1.1 1.1 0 0 0 .136.428.624.624 0 0 0 .32.262c.146.058.331.087.583.087.155 0 .311 0 .466-.01.156-.01.311-.029.466-.068v1.7c-.242.029-.485.048-.709.078a5.697 5.697 0 0 1-.708.038c-.583 0-1.049-.058-1.399-.165-.349-.106-.631-.272-.825-.485-.204-.214-.33-.476-.408-.797a6.01 6.01 0 0 1-.126-1.097v-5.875h-1.661v-1.66h-.019zm7.39 0h2.078v1.35h.038c.311-.583.738-.99 1.292-1.243a4.255 4.255 0 0 1 1.796-.379c.787 0 1.467.136 2.049.418.583.272 1.068.65 1.457 1.136.388.485.67 1.048.864 1.69.194.64.291 1.33.291 2.058 0 .67-.087 1.32-.262 1.942a5.213 5.213 0 0 1-.786 1.67c-.35.486-.797.864-1.34 1.156-.544.291-1.175.437-1.913.437-.321 0-.641-.03-.962-.088a4.223 4.223 0 0 1-.922-.281 3.324 3.324 0 0 1-.816-.495 3.092 3.092 0 0 1-.631-.7h-.039v4.972h-2.194V33.864zm7.671 4.991a4.94 4.94 0 0 0-.175-1.31 3.545 3.545 0 0 0-.524-1.127 2.672 2.672 0 0 0-.865-.787 2.419 2.419 0 0 0-1.194-.3c-.922 0-1.622.32-2.088.96-.466.641-.699 1.496-.699 2.564 0 .505.058.971.185 1.398.126.428.301.797.553 1.107.243.311.534.554.874.729.34.184.738.272 1.185.272.505 0 .922-.107 1.272-.311.349-.204.631-.476.854-.796a3.3 3.3 0 0 0 .486-1.117 6.27 6.27 0 0 0 .136-1.282zm3.874-8.788h2.195v2.078h-2.195v-2.078zm0 3.797h2.195v9.963h-2.195v-9.963zm4.156-3.797h2.195v13.76h-2.195v-13.76zm8.924 14.032c-.796 0-1.505-.136-2.126-.398a4.691 4.691 0 0 1-1.583-1.088 4.735 4.735 0 0 1-.981-1.66 6.418 6.418 0 0 1-.34-2.117c0-.758.117-1.457.34-2.098a4.74 4.74 0 0 1 .981-1.66 4.465 4.465 0 0 1 1.583-1.088c.621-.262 1.33-.398 2.126-.398.796 0 1.505.136 2.127.398a4.7 4.7 0 0 1 1.583 1.088c.427.466.757 1.02.98 1.66.224.641.34 1.34.34 2.098 0 .767-.116 1.476-.34 2.117a4.733 4.733 0 0 1-.98 1.66 4.484 4.484 0 0 1-1.583 1.088c-.622.262-1.331.398-2.127.398zm0-1.738c.486 0 .913-.107 1.272-.311a2.7 2.7 0 0 0 .884-.806c.233-.33.398-.709.515-1.127.106-.417.165-.844.165-1.281a5.23 5.23 0 0 0-.165-1.272 3.326 3.326 0 0 0-.515-1.127 2.673 2.673 0 0 0-.884-.796c-.359-.204-.786-.31-1.272-.31-.485 0-.913.106-1.272.31a2.79 2.79 0 0 0-.883.796c-.234.33-.399.7-.515 1.127a5.189 5.189 0 0 0-.165 1.272c0 .437.058.864.165 1.282.107.417.281.796.515 1.126.233.33.524.602.883.806.359.214.787.31 1.272.31zm5.671-8.497h1.661v-2.99h2.194v2.99H165v1.641h-1.981v5.321c0 .233.01.428.029.602.02.165.068.311.136.428a.623.623 0 0 0 .321.262c.145.058.33.087.582.087.156 0 .311 0 .466-.01.156-.01.311-.029.467-.068v1.7c-.243.029-.486.048-.709.078a5.703 5.703 0 0 1-.709.038c-.583 0-1.049-.058-1.398-.165-.35-.106-.632-.272-.826-.485-.204-.214-.33-.476-.408-.797a6.01 6.01 0 0 1-.126-1.097v-5.875h-1.66v-1.66h-.02z"/><path fill-rule="evenodd" d="M71.284 30.067h10.06l-8.137 5.914-5.03 3.651-8.147 5.914 3.117-9.565L55 30.057l10.06.01 3.117-9.574 3.107 9.574zm1.926 5.923 3.104 9.556-8.137-5.914 5.73-1.486-.697-2.156z" clip-rule="evenodd"/></g><defs><clipPath id="a"><path fill="#fff" d="M55 20.493h110v27.015H55z"/></clipPath></defs></svg>