<svg xmlns="http://www.w3.org/2000/svg" width="220" height="68" fill="none"><path fill="#121211" d="M90.064 26.427a9.34 9.34 0 0 1 1.973.192c.592.129 1.104.334 1.527.623.423.29.752.677.984 1.158.231.48.352 1.073.352 1.781 0 .762-.174 1.398-.521 1.91-.348.513-.86.927-1.537 1.252.931.267 1.63.739 2.089 1.411.459.673.69 1.483.69 2.427 0 .762-.147 1.425-.445 1.982a3.863 3.863 0 0 1-1.198 1.367 5.321 5.321 0 0 1-1.719.784 7.75 7.75 0 0 1-1.981.254h-7.339v-15.14h7.125zm-.423 6.132c.592 0 1.082-.142 1.465-.423.383-.28.574-.744.574-1.38 0-.352-.062-.642-.191-.869a1.47 1.47 0 0 0-.508-.53 2.196 2.196 0 0 0-.73-.267 4.906 4.906 0 0 0-.86-.076h-3.117v3.54l3.367.005zm.191 6.426c.325 0 .637-.031.93-.094.295-.062.558-.169.785-.316a1.58 1.58 0 0 0 .538-.606c.134-.253.2-.578.2-.975 0-.779-.217-1.331-.658-1.665-.437-.334-1.02-.499-1.741-.499H86.26v4.155h3.571zm14.699 2.586v-1.527h-.062c-.383.636-.877 1.095-1.483 1.38-.61.28-1.229.423-1.866.423-.806 0-1.465-.107-1.982-.316-.516-.214-.921-.512-1.22-.9-.298-.387-.503-.864-.628-1.42a8.81 8.81 0 0 1-.182-1.857v-6.746h3.01v6.19c0 .903.143 1.58.423 2.026.281.445.784.667 1.505.667.82 0 1.412-.245 1.782-.73.365-.49.552-1.291.552-2.405v-5.744h3.01v10.963l-2.859-.004zm7.344-2.724c.133.232.307.423.521.575.213.151.454.258.73.33.276.07.561.106.859.106.214 0 .437-.022.668-.076a2.41 2.41 0 0 0 .637-.231 1.36 1.36 0 0 0 .477-.423c.129-.178.191-.401.191-.668 0-.455-.303-.793-.899-1.02-.602-.227-1.439-.454-2.512-.677a13.601 13.601 0 0 1-1.282-.352 4.362 4.362 0 0 1-1.114-.53 2.521 2.521 0 0 1-.783-.828c-.196-.334-.299-.739-.299-1.22 0-.708.138-1.287.414-1.737.276-.454.642-.81 1.091-1.068a4.805 4.805 0 0 1 1.528-.552 9.335 9.335 0 0 1 1.741-.16c.597 0 1.171.057 1.728.168a4.518 4.518 0 0 1 1.496.575c.441.271.801.623 1.091 1.069.289.445.463 1.006.521 1.687h-2.863c-.041-.579-.263-.97-.66-1.175-.396-.205-.863-.308-1.398-.308-.169 0-.352.01-.552.032a1.847 1.847 0 0 0-.539.138 1.093 1.093 0 0 0-.414.307c-.111.134-.169.316-.169.539 0 .267.098.49.298.659.196.169.454.307.775.414.316.107.681.2 1.091.285.41.084.828.178 1.251.276.437.098.864.218 1.283.36.418.143.788.33 1.113.562.325.231.588.525.784.868.196.347.298.775.298 1.282 0 .722-.147 1.328-.436 1.813a3.41 3.41 0 0 1-1.136 1.175 4.735 4.735 0 0 1-1.598.624 9.327 9.327 0 0 1-1.835.178c-.623 0-1.26-.062-1.866-.191a4.943 4.943 0 0 1-1.621-.637 3.668 3.668 0 0 1-1.166-1.176c-.303-.49-.472-1.1-.499-1.835h2.863c-.009.33.058.606.192.842zm8.576-9.934v-2.48h3.01v2.48h-3.01zm3.01 1.696v10.963h-3.01V30.61h3.01zm4.845-.001v1.528h.062c.383-.637.878-1.1 1.483-1.39a4.29 4.29 0 0 1 1.866-.436c.806 0 1.465.111 1.982.33.516.218.921.525 1.22.912.298.388.507.864.628 1.421a8.83 8.83 0 0 1 .182 1.857v6.742h-3.01v-6.19c0-.904-.142-1.58-.423-2.026-.285-.445-.784-.668-1.505-.668-.819 0-1.416.245-1.781.73-.37.49-.552 1.292-.552 2.405v5.744h-3.011V30.608h2.859zm12.558 8.332c.454.437 1.104.66 1.95.66.606 0 1.131-.152 1.568-.454.436-.303.708-.624.806-.967h2.649c-.423 1.314-1.073 2.254-1.95 2.82-.877.565-1.937.845-3.18.845-.864 0-1.638-.138-2.333-.414a4.847 4.847 0 0 1-1.759-1.176 5.284 5.284 0 0 1-1.113-1.825c-.263-.708-.392-1.483-.392-2.334 0-.85.133-1.58.405-2.288a5.342 5.342 0 0 1 1.145-1.835 5.4 5.4 0 0 1 1.772-1.22c.686-.299 1.447-.446 2.28-.446.93 0 1.745.178 2.44.54.695.36 1.26.845 1.706 1.45.445.607.765 1.301.966 2.08.196.78.267 1.59.214 2.44h-7.909c.031.98.281 1.688.735 2.125zm3.402-5.766c-.361-.396-.909-.592-1.643-.592-.481 0-.882.08-1.198.245a2.287 2.287 0 0 0-.762.605c-.191.24-.325.495-.405.762a3.22 3.22 0 0 0-.138.721h4.898c-.142-.766-.391-1.344-.752-1.74zm7.611 5.673c.133.232.307.423.521.575.213.151.454.258.73.33.276.07.561.106.859.106.214 0 .437-.022.668-.076a2.41 2.41 0 0 0 .637-.231c.191-.103.352-.245.476-.423.13-.178.192-.401.192-.668 0-.455-.303-.793-.9-1.02-.601-.227-1.438-.454-2.511-.677a13.705 13.705 0 0 1-1.283-.352 4.371 4.371 0 0 1-1.113-.53 2.521 2.521 0 0 1-.783-.828c-.196-.334-.299-.739-.299-1.22 0-.708.138-1.287.414-1.737.276-.454.642-.81 1.091-1.068a4.796 4.796 0 0 1 1.528-.552 9.335 9.335 0 0 1 1.741-.16 8.79 8.79 0 0 1 1.728.168 4.518 4.518 0 0 1 1.496.575c.441.271.801.623 1.091 1.069.289.445.463 1.006.521 1.687h-2.864c-.04-.579-.262-.97-.659-1.175-.396-.205-.863-.308-1.398-.308-.169 0-.352.01-.552.032a1.839 1.839 0 0 0-.539.138c-.16.07-.303.173-.414.307-.111.134-.169.316-.169.539 0 .267.098.49.298.659.196.169.454.307.775.414.316.107.681.2 1.091.285.41.084.828.178 1.251.276.437.098.864.218 1.283.36.418.143.788.33 1.113.562.325.231.588.525.784.868.196.347.298.775.298 1.282 0 .722-.147 1.328-.436 1.813a3.41 3.41 0 0 1-1.136 1.175 4.735 4.735 0 0 1-1.598.624 9.327 9.327 0 0 1-1.835.178c-.624 0-1.26-.062-1.866-.191a4.934 4.934 0 0 1-1.621-.637 3.668 3.668 0 0 1-1.166-1.176c-.303-.49-.473-1.1-.499-1.835h2.863c-.009.33.058.606.192.842zm11.021 0c.133.232.307.423.521.575.213.151.454.258.73.33.276.07.561.106.859.106.214 0 .437-.022.668-.076a2.41 2.41 0 0 0 .637-.231c.191-.103.352-.245.476-.423.13-.178.192-.401.192-.668 0-.455-.303-.793-.9-1.02-.601-.227-1.438-.454-2.511-.677a13.705 13.705 0 0 1-1.283-.352 4.371 4.371 0 0 1-1.113-.53 2.535 2.535 0 0 1-.784-.828c-.195-.334-.298-.739-.298-1.22 0-.708.138-1.287.414-1.737.276-.454.642-.81 1.091-1.068a4.796 4.796 0 0 1 1.528-.552 9.335 9.335 0 0 1 1.741-.16 8.79 8.79 0 0 1 1.728.168 4.518 4.518 0 0 1 1.496.575c.441.271.801.623 1.091 1.069.289.445.463 1.006.521 1.687h-2.864c-.04-.579-.262-.97-.659-1.175-.396-.205-.863-.308-1.398-.308-.169 0-.352.01-.552.032a1.839 1.839 0 0 0-.539.138c-.16.07-.303.173-.414.307-.111.134-.169.316-.169.539 0 .267.098.49.298.659.196.169.454.307.775.414.316.107.681.2 1.091.285.41.084.828.178 1.251.276.437.098.864.218 1.283.36.418.143.788.33 1.113.562.325.231.588.525.784.868.196.347.298.775.298 1.282 0 .722-.147 1.328-.436 1.813a3.41 3.41 0 0 1-1.136 1.175 4.735 4.735 0 0 1-1.598.624 9.327 9.327 0 0 1-1.835.178c-.624 0-1.26-.062-1.866-.191a4.934 4.934 0 0 1-1.621-.637 3.668 3.668 0 0 1-1.166-1.176c-.303-.49-.473-1.1-.499-1.835h2.863c-.009.33.058.606.192.842zM75.244 21.378H50v25.244h25.244V21.378z"/><path fill="#fff" d="M59.903 44.177a2.056 2.056 0 0 1-1.162.347c-.655 0-1.042-.436-1.042-1.02 0-.788.721-1.202 2.213-1.371v-.196c0-.254-.196-.405-.552-.405a1.05 1.05 0 0 0-.855.405l-.624-.356c.33-.459.829-.686 1.496-.686.918 0 1.43.396 1.43 1.042v2.547h-.82l-.084-.307zm-1.296-.74c0 .237.151.455.419.455.29 0 .574-.12.855-.37v-.832c-.864.11-1.274.334-1.274.748zm2.931-2.372.766-.107.084.418c.432-.316.775-.485 1.207-.485.721 0 1.095.383 1.095 1.144v2.445h-.926v-2.284c0-.432-.111-.624-.445-.624-.276 0-.552.13-.864.392v2.52h-.922l.005-3.42zm9.275 3.482c-1.033 0-1.652-.664-1.652-1.822 0-1.157.624-1.834 1.639-1.834 1.015 0 1.616.646 1.616 1.79 0 .062-.009.12-.009.183H70.07c.009.668.285 1.002.828 1.002.352 0 .579-.143.797-.45l.677.378c-.303.495-.837.757-1.559.753zm.69-2.285c0-.472-.267-.748-.708-.748-.418 0-.677.267-.716.748h1.424zm-18.394 2.325c-.913 0-1.737-.584-1.737-1.853 0-1.27.824-1.852 1.737-1.852.913 0 1.736.583 1.736 1.852 0 1.27-.823 1.852-1.736 1.852zm0-2.926c-.69 0-.82.623-.82 1.073 0 .45.13 1.073.82 1.073s.82-.623.82-1.073c0-.45-.13-1.073-.82-1.073zm2.368-.69h.878v.414c.169-.222.579-.485.97-.485.036 0 .08 0 .12.009v.864h-.044c-.4 0-.841.062-.984.374v2.338h-.94V40.97zm11.476 2.761c.704-.005.762-.717.762-1.185 0-.547-.268-.997-.766-.997-.334 0-.704.245-.704 1.033 0 .436.027 1.153.708 1.149zm1.648-2.774v3.326c0 .588-.045 1.554-1.72 1.563-.69.005-1.33-.272-1.46-.877l.913-.147c.04.173.143.347.66.347.48 0 .707-.231.707-.78v-.409l-.013-.013c-.147.263-.37.512-.909.512-.819 0-1.465-.57-1.465-1.755 0-1.184.664-1.83 1.412-1.834.7 0 .962.32 1.02.485h-.01l.077-.418h.788zm4.176-1.161h-.365v1.006h-.191v-1.006h-.365v-.156h.917l.004.156zm1.514 1.006H74.1v-.97h-.01l-.378.97h-.12l-.378-.97h-.005v.97h-.191V39.64h.294l.347.881.343-.881h.294l-.005 1.162z"/></svg>